<?xml version="1.0"?>
<svg xmlns="http://www.w3.org/2000/svg" xmlns:xlink="http://www.w3.org/1999/xlink" xmlns:svgjs="http://svgjs.com/svgjs" version="1.1" width="512" height="512" x="0" y="0" viewBox="0 0 512 512" style="enable-background:new 0 0 512 512" xml:space="preserve" class=""><g><g xmlns="http://www.w3.org/2000/svg"><path d="m458.405 355.871h-176.095v-9.973c1.802-.748 3.523-1.758 5.087-3.067l10.847-9.079c3.087-2.583 4.857-6.373 4.857-10.398v-27.635c0-7.478-6.083-13.561-13.561-13.561h-29.457c-7.478 0-13.561 6.083-13.561 13.561v27.635c0 4.025 1.771 7.816 4.857 10.398l10.848 9.08c1.563 1.308 3.282 2.317 5.082 3.064v9.975h-81.156c-8.191 0-14.856 6.664-14.856 14.855v21.046c0 8.191 6.665 14.855 14.856 14.855h81.156v20.457h-81.156c-8.191 0-14.856 6.664-14.856 14.855v21.046c0 8.191 6.665 14.855 14.856 14.855h81.156v26.66c0 4.143 3.357 7.5 7.5 7.5s7.5-3.357 7.5-7.5v-26.658h176.096c8.191 0 14.856-6.664 14.856-14.855v-21.047c0-8.191-6.665-14.855-14.856-14.855h-176.095v-20.457h176.096c8.191 0 14.856-6.664 14.856-14.855v-21.046c0-8.192-6.665-14.856-14.857-14.856zm-196.883-33.19v-25.522h26.578v25.522l-10.331 8.647c-.849.71-1.888 1.067-2.928 1.074-.011 0-.021-.001-.032-.001-.01 0-.019.001-.029.001-1.04-.007-2.078-.363-2.926-1.073zm-75.225 140.161v-20.757h81.013v20.757zm271.965 0h-98.793v-20.757h98.793zm-113.793-20.757v20.757h-62.159v-20.757zm-158.172-50.457v-20.757h81.013v20.757zm96.013-20.757h107.38v20.757h-107.38zm175.952 20.757h-53.572v-20.757h53.572z" fill="#f1faee" data-original="#000000" style="" class=""/><path d="m127.692 355.871h-74.456c-7.994 0-14.498 6.503-14.498 14.497v21.763c0 7.994 6.504 14.497 14.498 14.497h74.456c7.994 0 14.497-6.503 14.497-14.497v-21.763c0-7.994-6.502-14.497-14.497-14.497zm-.503 35.757h-73.451v-20.757h73.451z" fill="#f1faee" data-original="#000000" style="" class=""/><path d="m127.692 427.085h-74.456c-7.994 0-14.498 6.503-14.498 14.497v21.763c0 7.994 6.504 14.497 14.498 14.497h74.456c7.994 0 14.497-6.503 14.497-14.497v-21.763c0-7.994-6.502-14.497-14.497-14.497zm-.503 35.757h-73.451v-20.757h73.451z" fill="#f1faee" data-original="#000000" style="" class=""/><path d="m437.579 0h-363.158c-19.676 0-35.683 16.007-35.683 35.682v190.038c0 19.675 16.007 35.682 35.683 35.682h50.73c4.143 0 7.5-3.357 7.5-7.5s-3.357-7.5-7.5-7.5h-50.73c-11.404 0-20.683-9.277-20.683-20.682v-190.038c0-11.405 9.279-20.682 20.683-20.682h363.158c11.404 0 20.683 9.277 20.683 20.682v190.038c0 11.404-9.278 20.682-20.683 20.682h-282.428c-4.143 0-7.5 3.357-7.5 7.5s3.357 7.5 7.5 7.5h282.428c19.676 0 35.683-16.007 35.683-35.682v-190.038c0-19.675-16.007-35.682-35.683-35.682z" fill="#f1faee" data-original="#000000" style="" class=""/><path d="m410.406 122.77c0-23.255-18.92-42.175-42.175-42.175s-42.174 18.92-42.174 42.175 18.919 42.175 42.174 42.175 42.175-18.921 42.175-42.175zm-69.348 0c0-14.984 12.19-27.175 27.174-27.175s27.175 12.19 27.175 27.175-12.19 27.175-27.175 27.175c-14.984-.001-27.174-12.191-27.174-27.175z" fill="#f1faee" data-original="#000000" style="" class=""/><path d="m301.644 107.285c-28.192 0-55.248 11.928-74.413 32.368-10.978-18.852-26.265-34.895-44.741-46.794-22.29-14.357-48.147-21.946-74.777-21.946-4.143 0-7.5 3.357-7.5 7.5s3.357 7.5 7.5 7.5c23.743 0 46.792 6.763 66.655 19.557 19.582 12.614 35.012 30.514 44.709 50.788 2.449 5.081 9.432 5.7 12.773 1.215 16.369-22.033 42.461-35.188 69.795-35.188 4.143 0 7.5-3.357 7.5-7.5s-3.359-7.5-7.501-7.5z" fill="#f1faee" data-original="#000000" style="" class=""/><path d="m301.644 138.541c-14.142 0-27.802 4.172-39.51 12.07-14.045 9.497-24.222 23.684-28.654 39.944-1.089 3.996 1.268 8.119 5.264 9.209.66.18 1.324.266 1.978.266 3.299 0 6.321-2.193 7.231-5.529 3.489-12.802 11.51-23.976 22.577-31.459 9.214-6.216 19.973-9.501 31.114-9.501 4.143 0 7.5-3.357 7.5-7.5s-3.358-7.5-7.5-7.5z" fill="#f1faee" data-original="#000000" style="" class=""/><path d="m107.712 117.169c21.838 0 43.025 7.82 59.659 22.021 16.454 14.047 27.487 33.434 31.068 54.59.619 3.66 3.793 6.249 7.386 6.249.415 0 .837-.034 1.261-.106 4.084-.691 6.834-4.563 6.143-8.646-4.166-24.617-16.993-47.167-36.118-63.494-19.347-16.517-43.993-25.613-69.398-25.613-4.143 0-7.5 3.357-7.5 7.5s3.356 7.499 7.499 7.499z" fill="#f1faee" data-original="#000000" style="" class=""/></g></g></svg>
